M48
INCH
T01C0.0150
T02C0.0400
T03C0.0500
T04C0.0600
T05C0.0300
%
T01
X+005400Y-009000
X+004400Y-010000
X+000400Y-017200
X+025200Y-016200
X+021800Y-019400
X+024800Y-020800
X+024800Y-019200
X+025200Y-013400
X+025200Y-006600
X+026000Y-006600
X+027400Y-006600
X+032800Y-006600
X+032800Y-015200
X+023000Y-022000
X+026400Y-016800
X+023000Y-021400
X+028000Y-012800
X+028400Y-008600
X+031200Y-008600
X+031200Y-018600
X+029200Y-018600
X+022400Y-019800
X+027200Y-019800
X+026800Y-021400
X+028000Y-013800
X+027600Y-018600
X+026800Y-021000
X+026800Y-015000
X+030400Y-019600
X+030400Y-021000
X+030400Y-010200
X+024600Y-021600
X+025600Y-019800
X+026580Y-014610
X-005600Y-019600
X+035400Y-017400
X+035400Y-016600
X+037400Y-018000
X+037400Y-021000
X+036400Y-021000
X+036400Y-016400
X+037800Y-016600
X+037800Y-019000
X+036000Y-014800
X+036000Y-020400
X+036000Y-017600
X+033800Y-018800
X+033800Y-017600
X+010600Y-022800
X+010600Y-019200
X+012800Y-020400
X+012800Y-020800
X+037800Y-011600
X+037800Y-009600
X+014400Y-005000
X+013800Y-023800
X+010600Y-017400
X+036200Y-014400
X+036200Y-003400
X+017800Y-003000
X+017800Y-006200
X+020400Y-006200
X+020400Y-010000
X+016000Y-010800
X+016000Y-012000
X+023200Y-017800
X+015000Y-017800
X+010200Y-022200
X+007200Y-018600
X+007600Y-018600
X+009800Y-018600
X+012800Y-003800
X+003800Y-023200
X+001400Y-022600
X+012800Y-011600
X+023600Y-007000
X+020000Y-010400
X+020000Y-003800
X+008800Y-003400
X+023000Y-009600
X-002400Y-021600
X-001400Y-024200
X+001000Y-024280
X+006200Y-024280
X+023600Y-014000
X+023600Y-009600
X+035400Y-004200
X+012400Y-005600
X+039400Y-015400
X+039400Y-013600
X+032000Y-018800
X+032000Y-014400
X+034400Y-014400
X+034400Y-013600
X+035400Y-009200
X+001600Y-021400
X+012400Y-002800
X+008400Y-018200
X+012400Y-008400
X+035800Y-014000
X+030000Y-011800
X+030800Y-011400
X+023400Y-022400
X+006600Y-012000
X+004950Y-019030
X-003400Y-005800
X+003200Y-013200
X+003200Y-008200
X+003600Y-015400
X+002800Y-015600
X+023400Y-014800
X+023000Y-011200
X+018800Y-011200
X+021800Y-023200
X+034000Y-012600
X+030800Y-012600
X+037450Y-023600
X+020490Y-023200
X+032000Y-002400
X+038510Y-023200
X+036600Y-024000
X-003800Y-018800
X+011000Y-016600
X+027600Y-016400
X+017800Y-010000
X+028000Y-008800
X+028000Y-007200
X+028400Y-004600
X+026000Y-004600
X+027600Y-011400
X+021800Y-013200
X+017800Y-013600
X+021800Y-010200
X+026000Y-005400
X+027000Y-010400
X+011000Y-023600
X-001000Y-019400
X+010400Y-006400
X+016800Y-021000
X+013000Y-018200
X+012400Y-023200
X+008000Y-020400
X+035400Y-020600
X+037800Y-021800
X+035400Y-021800
X+035400Y-019000
X+033200Y-014800
X+034200Y-019000
X+009800Y-012000
X+023200Y-016200
X+019600Y-019800
X+009600Y-015400
X+038400Y-013200
X+009400Y-012000
X+038400Y-020400
X+015000Y-025600
X+020900Y-020940
X+033400Y-010000
X+000800Y-013800
X+001600Y-011600
X+005400Y-009400
X+002400Y-016800
X+002000Y-013800
X+005600Y-015400
X+012440Y-018729
X+011400Y-022200
X+002000Y-018800
X+034000Y-018400
X+028800Y-003800
X+024400Y-003800
X+024400Y-016200
X+019200Y-016200
X+015800Y-015200
X+020000Y-013800
X+020000Y-012000
X+017000Y-012000
X+024000Y-011600
X+024000Y-008800
X+012000Y-013800
X+012000Y-012000
X+014800Y-012000
X+016200Y-010400
X-000600Y-020000
X+017600Y-025200
X+017600Y-018600
X+022600Y-015800
X+014600Y-023800
X+015600Y-011600
X-001800Y-012400
X+026600Y-008400
X+027200Y-017800
X+026600Y-006200
X+018400Y-017600
X+016600Y-003000
X+018800Y-018200
X+024800Y-024400
X+030000Y-001200
X+030000Y-010800
X+035400Y-025600
X+035000Y-013200
X+040340Y-022290
X+029600Y-002000
X+027600Y-007600
X+025600Y-008800
X+025600Y-018200
X+025200Y-015800
X+020200Y-019400
X+017400Y-002000
X+018000Y-023200
X+018000Y-026200
X+018000Y-017200
X+020400Y-016600
X+030310Y-025200
X+022200Y-002800
X+021800Y-015800
X+019600Y-015200
X+018800Y-013200
X+014200Y-013200
X+023800Y-003800
X+020400Y-003800
X+020000Y-015600
X+016600Y-026800
X+013400Y-003800
X+019600Y-003800
X+024000Y-018600
X+025200Y-018600
X+025200Y-021200
X+025200Y-024800
X+024800Y-015200
X+031600Y-002400
X+031600Y-024800
X+024800Y-023600
X+028800Y-014600
X+014000Y-007400
X+025600Y-004600
X+014000Y-005600
X+041200Y-004600
X+039400Y-004600
X+039400Y-005800
X+022200Y-012800
X+022200Y-009200
X+041000Y-005800
X+042000Y-010200
X+002600Y-013600
X+005140Y-015020
X+002643Y-015053
X+006600Y-019030
T02
X+032968Y-026299
X+033968Y-026299
X+034968Y-026299
X+035968Y-026299
X+036968Y-026299
X+037968Y-026299
X+038968Y-026299
X+039968Y-026299
X+040968Y-026299
X+041968Y-026299
X+006507Y-026277
X+007507Y-026277
X+008507Y-026277
X+009507Y-026277
X+010507Y-026277
X+011507Y-026277
X+012507Y-026277
X+013507Y-026277
X+014507Y-026277
X+015507Y-026277
X+019697Y-026277
X+020697Y-026277
X+021697Y-026277
X+022697Y-026277
X+023697Y-026277
X+024697Y-026277
X+025697Y-026277
X+026697Y-026277
X+027697Y-026277
X+028697Y-026277
X+000423Y-001830
X+001423Y-001830
X+002423Y-001830
X+015656Y-001870
X+014656Y-001870
X+013656Y-001870
X+012656Y-001870
X+011656Y-001870
X+010656Y-001870
X+009656Y-001870
X+008656Y-001870
X+007656Y-001870
X+006656Y-001870
X+019866Y-001890
X+020866Y-001890
X+021866Y-001890
X+022866Y-001890
X+023866Y-001890
X+024866Y-001890
X+025866Y-001890
X+026866Y-001890
X+027866Y-001890
X+028866Y-001890
X+033018Y-001850
X+034018Y-001850
X+035018Y-001850
X+036018Y-001850
X+037018Y-001850
X+038018Y-001850
X+039018Y-001850
X+040018Y-001850
X+041018Y-001850
X+042018Y-001850
X-003505Y-026208
X-002505Y-026208
X-001505Y-026208
X-000505Y-026208
X-007800Y-018190
X-007800Y-019190
X-007800Y-020190
X-007800Y-021190
X-007800Y-022190
X+022630Y-006030
X+021630Y-006030
T03
X-005506Y-001781
X-003459Y-001781
X-002480Y-004645
X-000433Y-004645
X-008544Y-012479
X-008544Y-014251
X-007600Y-011967
X-007600Y-014723
T04
X+009099Y-007367
X+010210Y-013970
X+002550Y-022440
X-007402Y-004747
X-007320Y-009350
X-007410Y-007020
X+041110Y-019510
X+014431Y-010230
X+016400Y-021860
X-009291Y-000984
X-009230Y-027070
X+045190Y-027110
X+045310Y-001040
T05
X+028819Y-013421
X+028819Y-015421
M30
